<?xml version="1.0" encoding="utf-8"?>
<!-- Generator: Adobe Illustrator 22.0.1, SVG Export Plug-In . SVG Version: 6.00 Build 0)  -->
<svg version="1.1" id="Capa_1" xmlns="http://www.w3.org/2000/svg" xmlns:xlink="http://www.w3.org/1999/xlink" x="0px" y="0px"
	 viewBox="0 0 236.9 144.4" style="enable-background:new 0 0 236.9 144.4;" xml:space="preserve">
<style type="text/css">
	.st0{fill:#F9CE8F;}
	.st1{fill:#E09A34;}
</style>
<ellipse class="st0" cx="220.2" cy="44.9" rx="9.5" ry="11.3"/>
<ellipse class="st0" cx="118.9" cy="19.1" rx="9.9" ry="7.8"/>
<circle class="st0" cx="15.6" cy="45.5" r="7.8"/>
<polygon class="st1" points="39.1,72.2 64.7,112.8 172.1,112.8 198,71.8 157,96.6 118.4,42.1 79.4,95.9 "/>
<g>
	<path d="M221.3,29.4c-8.6,0-15.6,7-15.6,15.6c0,3.4,1.1,6.5,2.9,9l-29.4,18.7l-7.7-16.8c-1.1-2.4-3.9-3.4-6.2-2.3l-19.5,9
		c-0.7,0.3-1.2,0.8-1.7,1.4l-20.1-30.2c5.8-2.3,9.9-7.9,9.9-14.5c0-8.6-7-15.6-15.6-15.6s-15.6,7-15.6,15.6c0,6.6,4.1,12.2,9.9,14.5
		L92.7,63.9c-0.4-0.6-1-1.1-1.7-1.4l-19.5-9c-2.3-1.1-5.1-0.1-6.2,2.3l-7.9,17.1L28.2,54c1.8-2.5,2.9-5.6,2.9-9
		c0-8.6-7-15.6-15.6-15.6S0,36.4,0,44.9s7,15.6,15.6,15.6c1.6,0,3.2-0.3,4.7-0.8l38,60.3c0.9,1.4,2.3,2.2,4,2.2h112.6
		c1.6,0,3.1-0.8,4-2.2l38-60.3c1.5,0.5,3,0.8,4.7,0.8c8.6,0,15.6-7,15.6-15.6C236.9,36.4,229.9,29.4,221.3,29.4z M149.8,71.1l15.2-7
		l6.3,13.6l-12.6,8L149,71.2C149.3,71.2,149.5,71.2,149.8,71.1z M118.4,13c3.4,0,6.2,2.8,6.2,6.2c0,3.4-2.8,6.2-6.2,6.2
		c-3.4,0-6.2-2.8-6.2-6.2C112.2,15.8,115,13,118.4,13z M71.9,64.1l15.2,7c0.2,0.1,0.5,0.1,0.7,0.2l-10,15l-12.5-8.1L71.9,64.1z
		 M9.3,44.9c0-3.4,2.8-6.2,6.2-6.2s6.2,2.8,6.2,6.2c0,3.4-2.8,6.2-6.2,6.2C12.1,51.1,9.3,48.4,9.3,44.9z M172.1,112.8H64.7
		L39.1,72.2l37.5,24.3c2.2,1.4,5,0.8,6.4-1.3l35.3-53.2l35,52.6c1.4,2.1,4.3,2.7,6.4,1.4L198,71.8L172.1,112.8z M221.3,51.2
		c-3.4,0-6.2-2.8-6.2-6.2c0-3.4,2.8-6.2,6.2-6.2s6.2,2.8,6.2,6.2C227.5,48.4,224.7,51.2,221.3,51.2z M179.8,136.8
		c0,2.6-2.1,4.7-4.7,4.7H61.8c-2.6,0-4.7-2.1-4.7-4.7c0-2.6,2.1-4.7,4.7-4.7h113.4C177.7,132.2,179.8,134.3,179.8,136.8z"/>
</g>
</svg>
